<svg width="125" height="28" viewBox="0 0 125 28" fill="none" xmlns="http://www.w3.org/2000/svg">
<g clip-path="url(#clip0_9617_7165)">
<path d="M70.6778 16.099C70.8089 16.0561 70.9197 16.0109 71.0508 15.9453C72.0636 15.4615 72.8345 14.7562 73.3612 13.8542C73.8676 12.9522 74.1321 11.8942 74.1321 10.6622C74.1321 9.4301 73.8902 8.35176 73.3612 7.42716C72.8548 6.50255 72.0839 5.79949 71.0938 5.27049C70.081 4.76411 68.8489 4.52222 67.375 4.52222H60.1567V23.7152H63.6336V16.6936H67.1987L70.9627 23.7152H74.8352L70.6756 16.099H70.6778ZM63.6359 7.42716H66.8279C67.7073 7.42716 68.4126 7.53793 68.962 7.80016C69.5113 8.04205 69.9295 8.41732 70.194 8.9011C70.4585 9.38488 70.5897 9.97943 70.5897 10.6622C70.5897 11.3449 70.4585 11.9168 70.194 12.378C69.9295 12.8392 69.5113 13.1918 68.962 13.4337C68.4126 13.6756 67.7073 13.7864 66.8483 13.7864H63.6359V7.42716Z" fill="#A3A3A3"/>
<path d="M76.0083 23.7197V4.51318H88.5007V7.42943H79.4874V12.6448H87.8519V15.561H79.4874V20.8035H88.5753V23.7197H76.0083Z" fill="#A3A3A3"/>
<path d="M100.756 4.52222H96.465L89.6853 23.7152H93.4041L94.9888 18.9836H102.23L103.814 23.7152H107.513L100.756 4.52222ZM95.936 16.1872L98.5335 8.46254H98.6872L101.285 16.1872H95.936Z" fill="#A3A3A3"/>
<path d="M105.22 7.42943V4.51318H120.545V7.42943H114.609V23.7197H111.159V7.42943H105.223H105.22Z" fill="#A3A3A3"/>
<path d="M8.27919 4.51318V23.7197H4.80005V4.51318H8.27919Z" fill="#184894"/>
<path d="M13.7883 15.2784V23.7197H10.3928V9.31483H13.6391V11.7631H13.8087C14.1387 10.9561 14.67 10.3163 15.3979 9.84156C16.1258 9.36683 17.0278 9.1272 18.1039 9.1272C19.0986 9.1272 19.9644 9.3397 20.7059 9.7647C21.4474 10.1897 22.0216 10.8069 22.4308 11.6117C22.84 12.4187 23.0412 13.3976 23.0367 14.5482V23.7197H19.6412V15.0727C19.6412 14.1119 19.3925 13.3569 18.8974 12.8121C18.4001 12.2672 17.7128 11.996 16.8379 11.996C16.2434 11.996 15.7167 12.1271 15.2577 12.3848C14.7988 12.6448 14.4394 13.0178 14.1794 13.5061C13.9194 13.9944 13.7906 14.5844 13.7906 15.2784H13.7883Z" fill="#184894"/>
<path d="M32.0636 23.5818C31.8873 23.6474 31.6228 23.7129 31.2927 23.7807C30.9627 23.8689 30.5445 23.9118 30.0607 23.9118C29.2243 23.9345 28.4534 23.8011 27.7707 23.5388C27.0879 23.2517 26.5386 22.8132 26.143 22.196C25.7474 21.6015 25.5484 20.8532 25.571 19.9512V11.9394H23.5251V9.31933H25.571V5.86279H28.9598V9.31933H31.7991V11.9394H28.9598V19.3792C28.9598 19.8404 29.0253 20.1931 29.179 20.435C29.3102 20.6769 29.4865 20.8306 29.7284 20.9187C29.9477 21.0069 30.2122 21.0499 30.4993 21.0499C30.7185 21.0499 30.8949 21.0499 31.0712 21.0069C31.2701 20.9843 31.4013 20.9413 31.4894 20.9187L32.0614 23.5818H32.0636Z" fill="#184894"/>
<path d="M50.5895 13.7004V16.4064H55.0136C54.991 17.2858 54.7943 18.0567 54.4191 18.7168C54.0461 19.4221 53.4945 19.9489 52.7688 20.3241C52.0635 20.6971 51.2067 20.8735 50.2369 20.8735C48.668 20.8735 47.3161 20.08 46.9453 19.7838C46.6311 20.8622 46.127 21.9021 45.4375 22.7837C46.3734 23.5117 48.2543 23.9977 50.2165 23.9977C51.8012 23.9977 53.2096 23.6902 54.4417 23.0301C55.6737 22.3926 56.6209 21.468 57.324 20.2563C58.0293 19.0672 58.3797 17.6362 58.3797 15.9859V13.6959H50.5895V13.7004ZM47.3975 8.17538C48.2113 7.64639 49.1359 7.4045 50.1713 7.4045C50.7432 7.4045 51.2722 7.47006 51.756 7.62378C52.2398 7.7549 52.6806 7.97644 53.0536 8.26128C53.4266 8.54613 53.9014 9.06608 54.1659 9.46169C54.9232 8.88296 56.0219 7.99679 56.8244 7.37285C56.526 6.92976 55.9111 6.34877 55.5403 6.06167C54.8102 5.49424 53.9986 5.0489 53.0762 4.74145C52.1742 4.434 51.1841 4.28027 50.1057 4.28027C48.8511 4.28027 47.6461 4.41591 46.6288 4.94038C45.0419 5.75874 43.5883 7.02923 42.7563 8.33362C43.7262 8.90331 44.6372 9.56116 45.4149 10.3727C45.7743 9.61994 46.6062 8.70211 47.3975 8.17312V8.17538Z" fill="#FA9D1C"/>
<path d="M45.1415 16.4064C45.1415 15.1518 44.9652 14.0508 44.6125 13.1262C44.2599 12.2242 43.7987 11.4534 43.1815 10.8588C42.5644 10.2643 41.8613 9.84603 41.0678 9.56119C40.2969 9.27409 39.4401 9.12036 38.5585 9.12036C37.1931 9.12036 35.9836 9.42781 34.9708 10.0676C33.9581 10.7051 33.1668 11.5641 32.5949 12.6877C32.0229 13.8112 31.7358 15.1314 31.7358 16.6054C31.7358 18.0793 32.0229 19.4222 32.5949 20.5231C33.1442 21.6444 33.9603 22.5034 34.9934 23.098C36.0492 23.6925 37.3038 24 38.7348 24C39.8584 24 40.8485 23.8237 41.7279 23.4936C42.587 23.1409 43.3126 22.6572 43.862 22.04C44.4113 21.4228 44.8521 20.4982 45.0059 19.8607C43.6743 21.1177 41.9336 21.771 39.3249 21.771C37.1094 21.771 36.1916 20.5299 35.5631 19.5081C35.2285 18.9632 35.1223 18.2308 35.102 17.4396H45.1393V16.4042L45.1415 16.4064ZM35.1042 15.1518C35.1472 14.5798 35.2805 14.0508 35.545 13.5897C35.8525 13.0403 36.2504 12.5995 36.7771 12.2695C37.3061 11.9394 37.921 11.7631 38.6037 11.7631C39.2864 11.7631 39.8358 11.9168 40.3195 12.2039C40.8033 12.5113 41.1989 12.9092 41.4634 13.4133C41.7505 13.9197 41.8816 14.5143 41.8816 15.1518H35.102H35.1042Z" fill="#184894"/>
</g>
<defs>
<clipPath id="clip0_9617_7165">
<rect width="115.745" height="20" fill="white" transform="translate(4.80005 4)"/>
</clipPath>
</defs>
</svg>
