<svg xmlns="http://www.w3.org/2000/svg" width="57.417" height="60" viewBox="0 0 57.417 60">
  <g id="noun-mechanical-engineering-3503043" transform="translate(-3.292 -2)">
    <path id="Path_1" data-name="Path 1" d="M37.99,14.061H17.02a10.544,10.544,0,0,1,2.868-6.8l.437,4.017a.515.515,0,0,0,.508.458h.051a.515.515,0,0,0,.458-.57l-.519-4.78a10.317,10.317,0,0,1,4.038-2.074v6.915a.509.509,0,0,0,1.017,0V2.742A.749.749,0,0,1,26.631,2h1.76a.748.748,0,0,1,.752.742v8.481a.508.508,0,1,0,1.017,0V4.319A10.539,10.539,0,0,1,34.2,6.393l-.519,4.77a.515.515,0,0,0,.458.57h.051a.516.516,0,0,0,.508-.458l.437-4.027a10.438,10.438,0,0,1,2.857,6.813Zm1.922,1.444a.43.43,0,0,0-.427-.427H15.536a.43.43,0,0,0-.427.427V17.4h24.8Zm-.895,10.1a2.417,2.417,0,0,0,0-4.77ZM16,25.623v-4.81A2.177,2.177,0,0,0,13.98,22.98v.478A2.177,2.177,0,0,0,16,25.624ZM49.99,62h1.729V60.4c-.193,0-.4-.01-.59-.02ZM43.634,51.871v1.891l.6-.407a9.149,9.149,0,0,1,0-1.058Zm2.38,5.888-2.38.427V62h3.01l-.153-.061a.5.5,0,0,1-.295-.559l.549-2.868a7.3,7.3,0,0,1-.732-.753Zm12.356-3.61,2.288,1.607-.671,1.576-2.746-.519a.5.5,0,0,0-.488.173A6.938,6.938,0,0,1,55.726,58a.511.511,0,0,0-.183.488l.478,2.746-1.6.641-1.566-2.309a.591.591,0,0,0-.478-.214H52.3a.781.781,0,0,0-.1.01,6.4,6.4,0,0,1-1.251-.03.524.524,0,0,0-.478.213l-1.607,2.288-1.586-.671L47.8,58.41a.5.5,0,0,0-.173-.488,6.071,6.071,0,0,1-1.017-1.027.491.491,0,0,0-.488-.183L43.38,57.2l-.64-1.6,2.308-1.576a.505.505,0,0,0,.224-.468,6.2,6.2,0,0,1,.01-1.444.524.524,0,0,0-.214-.478L43.42,50.478l-.64-.448.671-1.576,2.746.529a.5.5,0,0,0,.5-.183,5.53,5.53,0,0,1,1.017-1,.535.535,0,0,0,.173-.224.493.493,0,0,0,.02-.275l-.488-2.756,1.6-.64,1.577,2.319a.512.512,0,0,0,.478.224,5.65,5.65,0,0,1,1.434.01.524.524,0,0,0,.478-.214l1.606-2.288,1.576.661-.529,2.746a.5.5,0,0,0,.183.5,5.869,5.869,0,0,1,1,1.017.493.493,0,0,0,.5.193l2.756-.478.641,1.6L58.39,51.749a.538.538,0,0,0-.224.488,5.647,5.647,0,0,1-.01,1.434.524.524,0,0,0,.214.478Zm-3.112-2.685a3.817,3.817,0,1,0-3.529,5.248,3.744,3.744,0,0,0,1.424-.285,3.8,3.8,0,0,0,2.105-4.963Zm-19.607-17.9A10.2,10.2,0,0,0,38,26.986V18.414H17.02v8.573a10.55,10.55,0,0,0,2.329,6.59,5.979,5.979,0,0,0,.62.7l.132.143a9.461,9.461,0,0,0,2.207,1.688c.305.173.631.315.946.458a10.744,10.744,0,0,0,8.7-.092c.254-.122.508-.224.752-.366a10.256,10.256,0,0,0,2.95-2.543Zm-3.478,3.925c-.193.092-.4.173-.59.254s-.4.132-.59.193c-.275.082-.549.173-.834.234-.081.02-.163.03-.254.051a10.622,10.622,0,0,1-4.8,0c-.081-.02-.163-.03-.244-.051-.285-.061-.559-.153-.844-.234-.193-.061-.387-.122-.569-.193-.2-.081-.407-.163-.61-.254-.132-.061-.264-.1-.4-.163l-.986,4.932.4.529.448.61A6.627,6.627,0,0,0,27.5,46a6.815,6.815,0,0,0,1.77-.244A6.482,6.482,0,0,0,32.722,43.4l.427-.58.417-.559-.986-4.932c-.133.061-.275.1-.407.163Zm10.505,10.18a.483.483,0,0,1,.387-.295.545.545,0,0,1,.183,0l2.858.549a7.368,7.368,0,0,1,.752-.742l-.437-2.441-12.081-1.81-.376.508-.427.58a7.489,7.489,0,0,1-3.915,2.695,7.528,7.528,0,0,1-8.135-2.695l-.448-.61-.356-.478L8.6,44.732c-.142.02-.285.051-.417.081-.112.031-.214.061-.315.092A6.258,6.258,0,0,0,3.292,50.9V62h8.1V50.844a.508.508,0,1,1,1.017,0V62H42.617V58.014a.179.179,0,0,1-.02-.051L41.641,55.6a.5.5,0,0,1,.183-.61l.793-.539v-3.3l-.763-.529a.523.523,0,0,1-.173-.62Zm10.139,2.644a2.944,2.944,0,0,0-1.1-.224,2.713,2.713,0,0,0-1.047.214A2.75,2.75,0,0,0,49.146,51.8a2.8,2.8,0,1,0,5.166.051,2.769,2.769,0,0,0-1.495-1.535Z" fill="#419e9b"/>
  </g>
</svg>
